P3
4 2
255
173 197 76
100 129 153
113 122 121
170 172 75
170 191 105
94 121 117
122 142 80
157 173 0
